<?xml version="1.0" encoding="UTF-8"?>
<svg version="1.1" xmlns="http://www.w3.org/2000/svg" width="32" height="32">
<path d="M0 0 C10.56 0 21.12 0 32 0 C32 10.56 32 21.12 32 32 C21.44 32 10.88 32 0 32 C0 21.44 0 10.88 0 0 Z " fill="#ECECEC" transform="translate(0,0)"/>
<path d="M0 0 C0.99 -0.33 1.98 -0.66 3 -1 C3.391875 -0.566875 3.78375 -0.13375 4.1875 0.3125 C5.99843418 2.13175226 5.99843418 2.13175226 8.5625 3.4375 C11.21380835 5.13705663 12.01709169 6.05127508 13 9 C13 10.32 13 11.64 13 13 C3.76 13 -5.48 13 -15 13 C-15 11.02 -15 9.04 -15 7 C-12.25 4.3125 -12.25 4.3125 -9 2 C-7.9790625 1.071875 -7.9790625 1.071875 -6.9375 0.125 C-4.29276591 -1.41065205 -2.8879232 -0.74049313 0 0 Z " fill="#CEBFA4" transform="translate(17,19)"/>
<path d="M0 0 C0.33 1.32 0.66 2.64 1 4 C1.66 3.67 2.32 3.34 3 3 C4.54023996 2.93049459 6.08334988 2.91547643 7.625 2.9375 C8.85089844 2.95103516 8.85089844 2.95103516 10.1015625 2.96484375 C11.04128906 2.98224609 11.04128906 2.98224609 12 3 C11.67 4.98 11.34 6.96 11 9 C10.34 9 9.68 9 9 9 C9 10.98 9 12.96 9 15 C10.98 15.66 12.96 16.32 15 17 C15 17.66 15 18.32 15 19 C14.42636719 19.10957031 13.85273438 19.21914063 13.26171875 19.33203125 C9.20563067 20.52994327 5.97573662 23.03788231 3 26 C1.87571136 29.20780218 1.87571136 29.20780218 2 32 C1.34 32 0.68 32 0 32 C0 21.44 0 10.88 0 0 Z " fill="#EDEDED" transform="translate(0,0)"/>
<path d="M0 0 C5.61 0 11.22 0 17 0 C17.66 1.32 18.32 2.64 19 4 C19.99 4.33 20.98 4.66 22 5 C21.34 5 20.68 5 20 5 C20 5.99 20 6.98 20 8 C20.66 8 21.32 8 22 8 C21.67 10.31 21.34 12.62 21 15 C20.34 15 19.68 15 19 15 C19 13.35 19 11.7 19 10 C18.67 10.66 18.34 11.32 18 12 C17.34 12 16.68 12 16 12 C16 11.01 16 10.02 16 9 C14.35 9 12.7 9 11 9 C11 9.66 11 10.32 11 11 C11.99 10.67 12.98 10.34 14 10 C14 10.66 14 11.32 14 12 C13.01 12 12.02 12 11 12 C11 12.66 11 13.32 11 14 C13.31 14 15.62 14 18 14 C17.67 14.66 17.34 15.32 17 16 C15.72125 16.061875 14.4425 16.12375 13.125 16.1875 C12.04605469 16.23970703 12.04605469 16.23970703 10.9453125 16.29296875 C10.30335937 16.19628906 9.66140625 16.09960938 9 16 C7 13 7 13 7.375 10.3125 C7.58125 9.549375 7.7875 8.78625 8 8 C8.66 8 9.32 8 10 8 C10 6.35 10 4.7 10 3 C6.7 3 3.4 3 0 3 C0 2.01 0 1.02 0 0 Z " fill="#D3D3D2" transform="translate(1,1)"/>
<path d="M0 0 C0.66 0.66 1.32 1.32 2 2 C1.01 2.33 0.02 2.66 -1 3 C0.29467677 5.05990478 0.29467677 5.05990478 2 7 C2.99 7 3.98 7 5 7 C5.66 7 6.32 7 7 7 C7 7.66 7 8.32 7 9 C6.01 9.33 5.02 9.66 4 10 C4.33 10.99 4.66 11.98 5 13 C1.04 13 -2.92 13 -7 13 C-7.33 10.69 -7.66 8.38 -8 6 C-5.36 4.02 -2.72 2.04 0 0 Z " fill="#648270" transform="translate(12,18)"/>
<path d="M0 0 C0.33 0.99 0.66 1.98 1 3 C2.0725 2.979375 3.145 2.95875 4.25 2.9375 C7.14790424 2.9857984 9.28612141 3.13155885 12 4 C11.67 6.31 11.34 8.62 11 11 C10.34 11 9.68 11 9 11 C9 9.35 9 7.7 9 6 C8.67 6.66 8.34 7.32 8 8 C7.34 8 6.68 8 6 8 C6 7.01 6 6.02 6 5 C4.35 5 2.7 5 1 5 C1 5.66 1 6.32 1 7 C1.99 6.67 2.98 6.34 4 6 C4 6.66 4 7.32 4 8 C3.01 8 2.02 8 1 8 C1 8.66 1 9.32 1 10 C3.31 10 5.62 10 8 10 C7.67 10.66 7.34 11.32 7 12 C5.72125 12.061875 4.4425 12.12375 3.125 12.1875 C2.40570312 12.22230469 1.68640625 12.25710937 0.9453125 12.29296875 C0.30335937 12.19628906 -0.33859375 12.09960938 -1 12 C-3 9 -3 9 -2.625 6.3125 C-2.41875 5.549375 -2.2125 4.78625 -2 4 C-1.34 4 -0.68 4 0 4 C0 2.68 0 1.36 0 0 Z " fill="#ADAEAC" transform="translate(11,5)"/>
<path d="M0 0 C1.13888672 0.81597656 1.13888672 0.81597656 2.30078125 1.6484375 C3.06777344 2.17695313 3.83476562 2.70546875 4.625 3.25 C6.71726806 5.11618801 7.6728283 6.39821589 8.61328125 9.0234375 C8.61328125 10.3434375 8.61328125 11.6634375 8.61328125 13.0234375 C6.63328125 13.0234375 4.65328125 13.0234375 2.61328125 13.0234375 C2.28328125 11.3734375 1.95328125 9.7234375 1.61328125 8.0234375 C2.27328125 8.0234375 2.93328125 8.0234375 3.61328125 8.0234375 C3.61328125 7.0334375 3.61328125 6.0434375 3.61328125 5.0234375 C1.30328125 4.6934375 -1.00671875 4.3634375 -3.38671875 4.0234375 C-3.38671875 3.3634375 -3.38671875 2.7034375 -3.38671875 2.0234375 C-4.70671875 1.6934375 -6.02671875 1.3634375 -7.38671875 1.0234375 C-3.06701863 -1.25491761 -3.06701863 -1.25491761 0 0 Z " fill="#B09E90" transform="translate(21.38671875,18.9765625)"/>
<path d="M0 0 C1.65 0 3.3 0 5 0 C5 0.99 5 1.98 5 3 C5.33 2.34 5.66 1.68 6 1 C6.66 1 7.32 1 8 1 C8.33 2.98 8.66 4.96 9 7 C7.1875 8.5625 7.1875 8.5625 5 10 C4.01 9.67 3.02 9.34 2 9 C3 7 3 7 6 6 C3.03 5.505 3.03 5.505 0 5 C0 4.34 0 3.68 0 3 C0.99 3 1.98 3 3 3 C2.01 2.67 1.02 2.34 0 2 C0 1.34 0 0.68 0 0 Z " fill="#DEDEDE" transform="translate(12,10)"/>
<path d="M0 0 C0.66 0 1.32 0 2 0 C2.33 1.65 2.66 3.3 3 5 C7.62 5 12.24 5 17 5 C17.33 4.34 17.66 3.68 18 3 C18 3.99 18 4.98 18 6 C14.69005287 7.65497356 11.00877 7.10084335 7.375 7.0625 C6.57320312 7.05798828 5.77140625 7.05347656 4.9453125 7.04882812 C2.96350994 7.03703168 0.98174567 7.01909605 -1 7 C-1.04254356 5.00045254 -1.04080783 2.99958364 -1 1 C-0.67 0.67 -0.34 0.34 0 0 Z " fill="#B1ADA0" transform="translate(3,25)"/>
<path d="M0 0 C2.475 0.99 2.475 0.99 5 2 C4.67 3.65 4.34 5.3 4 7 C1.03 6.505 1.03 6.505 -2 6 C-1.125 1.125 -1.125 1.125 0 0 Z " fill="#F6F6F5" transform="translate(14,2)"/>
<path d="M0 0 C0.66 0 1.32 0 2 0 C2.66 0.66 3.32 1.32 4 2 C4.99 2 5.98 2 7 2 C7.66 2 8.32 2 9 2 C9 2.66 9 3.32 9 4 C8.01 4.33 7.02 4.66 6 5 C6.33 5.99 6.66 6.98 7 8 C5.35 7.67 3.7 7.34 2 7 C2.33 6.01 2.66 5.02 3 4 C2.34 4 1.68 4 1 4 C0.67 2.68 0.34 1.36 0 0 Z " fill="#70856B" transform="translate(10,23)"/>
<path d="M0 0 C-0.33 1.32 -0.66 2.64 -1 4 C-2.32 4.33 -3.64 4.66 -5 5 C-5.66 3.35 -6.32 1.7 -7 0 C-4.3333581 -1.33332095 -2.83319697 -0.67102033 0 0 Z " fill="#CEB29B" transform="translate(18,21)"/>
<path d="M0 0 C1.32 0 2.64 0 4 0 C3.67 2.31 3.34 4.62 3 7 C2.34 7 1.68 7 1 7 C0.67 4.69 0.34 2.38 0 0 Z " fill="#7D7974" transform="translate(19,9)"/>
<path d="M0 0 C0.66 0 1.32 0 2 0 C2.33 1.98 2.66 3.96 3 6 C1.35 6 -0.3 6 -2 6 C-1.34 5.01 -0.68 4.02 0 3 C0 2.01 0 1.02 0 0 Z " fill="#BEB6AB" transform="translate(21,26)"/>
<path d="M0 0 C0.99 0 1.98 0 3 0 C2.67 2.31 2.34 4.62 2 7 C1.01 6.67 0.02 6.34 -1 6 C-0.67 4.02 -0.34 2.04 0 0 Z " fill="#837F7A" transform="translate(9,9)"/>
</svg>
